<svg xmlns="http://www.w3.org/2000/svg" version="1.1" xmlns:xlink="http://www.w3.org/1999/xlink" xmlns:svgjs="http://svgjs.dev/svgjs" width="2000" height="1500" viewBox="0 0 2000 1500"><rect width="2000" height="1500" fill="#000000"></rect><g transform="matrix(0.75,0,0,0.75,250.90510026570507,255.40080971659916)"><svg viewBox="0 0 374 247" data-background-color="#ffffff" preserveAspectRatio="xMidYMid meet" height="1320" width="2000" xmlns="http://www.w3.org/2000/svg" xmlns:xlink="http://www.w3.org/1999/xlink"><g id="tight-bounds" transform="matrix(1,0,0,1,-0.22567166624912716,-0.09999999999999432)"><svg viewBox="0 0 374.45134333249825 247.2" height="247.2" width="374.45134333249825"><g><svg viewBox="0 0 374.45134333249825 247.2" height="247.2" width="374.45134333249825"><g><svg viewBox="0 0 374.45134333249825 247.2" height="247.2" width="374.45134333249825"><g><svg viewBox="0 0 395.52 261.10880823621926" height="247.2" width="374.45134333249825"><g transform="matrix(1,0,0,1,0,119.20589005465948)"><svg viewBox="0 0 395.52 141.9029181815598" height="141.9029181815598" width="395.52"><g><svg viewBox="0 0 395.52 141.9029181815598" height="141.9029181815598" width="395.52"><g><svg viewBox="0 0 395.52 89.59391717583163" height="89.59391717583163" width="395.52"><g transform="matrix(1,0,0,1,0,0)"><svg width="395.52" viewBox="3.1 -37.55 220.92000000000002 50.05" height="89.59391717583163" data-palette-color="#001f3f"><path d="M14.6 0L9.95 0 9.95-17 3.1-35 7.75-35 12.3-23.05 16.8-35 21.45-35 14.6-17 14.6 0ZM35.15 0L24.7 0Q23.2 0 22.12-1.05 21.05-2.1 21.05-3.65L21.05-3.65 21.05-11.2Q21.05-12.7 22.12-13.78 23.2-14.85 24.7-14.85L24.7-14.85 28.6-14.85Q29.4-14.85 29.92-15.38 30.45-15.9 30.45-16.65L30.45-16.65 30.45-18.5Q30.45-19.25 29.92-19.78 29.4-20.3 28.6-20.3L28.6-20.3 23.2-20.3 24.25-25 31.5-25Q33-25 34.07-23.93 35.15-22.85 35.15-21.35L35.15-21.35 35.15 0ZM27.55-4.7L27.55-4.7 30.45-4.7 30.45-10.15 27.55-10.15Q26.8-10.15 26.27-9.63 25.75-9.1 25.75-8.35L25.75-8.35 25.75-6.5Q25.75-5.75 26.27-5.23 26.8-4.7 27.55-4.7ZM42.55 0L37.85 0 37.85-25 48.3-25Q49.75-25 50.85-23.95 51.95-22.9 51.95-21.4L51.95-21.4 51.95 0 47.25 0 47.25-18.5Q47.25-19.3 46.7-19.8 46.15-20.3 45.45-20.3L45.45-20.3 42.55-20.3 42.55 0ZM68.74 0L58.29 0Q56.79 0 55.72-1.05 54.64-2.1 54.64-3.65L54.64-3.65 54.64-11.2Q54.64-12.7 55.72-13.78 56.79-14.85 58.29-14.85L58.29-14.85 62.19-14.85Q62.99-14.85 63.52-15.38 64.04-15.9 64.04-16.65L64.04-16.65 64.04-18.5Q64.04-19.25 63.52-19.78 62.99-20.3 62.19-20.3L62.19-20.3 56.79-20.3 57.84-25 65.09-25Q66.59-25 67.67-23.93 68.74-22.85 68.74-21.35L68.74-21.35 68.74 0ZM61.14-4.7L61.14-4.7 64.04-4.7 64.04-10.15 61.14-10.15Q60.39-10.15 59.87-9.63 59.34-9.1 59.34-8.35L59.34-8.35 59.34-6.5Q59.34-5.75 59.87-5.23 60.39-4.7 61.14-4.7ZM76.44 12.5L71.74 12.5 71.74-25 82.19-25Q83.74-25 84.79-23.95 85.84-22.9 85.84-21.35L85.84-21.35 85.84-3.65Q85.84-2.1 84.79-1.05 83.74 0 82.19 0L82.19 0 76.44 0 76.44 12.5ZM76.44-20.3L76.44-4.7 79.34-4.7Q80.04-4.7 80.59-5.25 81.14-5.8 81.14-6.5L81.14-6.5 81.14-18.45Q81.14-19.3 80.59-19.8 80.04-20.3 79.34-20.3L79.34-20.3 76.44-20.3ZM102.94 0L92.49 0Q90.99 0 89.91-1.05 88.84-2.1 88.84-3.65L88.84-3.65 88.84-11.2Q88.84-12.7 89.91-13.78 90.99-14.85 92.49-14.85L92.49-14.85 96.39-14.85Q97.19-14.85 97.71-15.38 98.24-15.9 98.24-16.65L98.24-16.65 98.24-18.5Q98.24-19.25 97.71-19.78 97.19-20.3 96.39-20.3L96.39-20.3 90.99-20.3 92.04-25 99.29-25Q100.79-25 101.86-23.93 102.94-22.85 102.94-21.35L102.94-21.35 102.94 0ZM95.34-4.7L95.34-4.7 98.24-4.7 98.24-10.15 95.34-10.15Q94.59-10.15 94.06-9.63 93.54-9.1 93.54-8.35L93.54-8.35 93.54-6.5Q93.54-5.75 94.06-5.23 94.59-4.7 95.34-4.7ZM111.14 0L106.44 0 106.44-36.45 111.14-37.55 111.14-12.5 115.84-25 120.53-25 115.84-12.5 120.53 0 115.84 0 113.48-6.3 111.14 0ZM137.13 0L126.68 0Q125.13 0 124.08-1.05 123.03-2.1 123.03-3.65L123.03-3.65 123.03-25 127.73-25 127.73-6.5Q127.73-5.8 128.28-5.25 128.83-4.7 129.53-4.7L129.53-4.7 132.43-4.7 132.43-25 137.13-25 137.13 0ZM155.23 12.5L150.53 12.5 150.53 0 144.73 0Q143.33 0 142.23-1.05 141.13-2.1 141.13-3.65L141.13-3.65 141.13-21.35Q141.13-22.9 142.23-23.95 143.33-25 144.73-25L144.73-25 155.23-25 155.23 12.5ZM147.63-4.7L147.63-4.7 150.53-4.7 150.53-20.3 147.63-20.3Q146.93-20.3 146.38-19.8 145.83-19.3 145.83-18.45L145.83-18.45 145.83-6.5Q145.83-5.8 146.38-5.25 146.93-4.7 147.63-4.7ZM163.13 0L158.43 0 158.43-25 168.88-25Q170.33-25 171.43-23.95 172.53-22.9 172.53-21.4L172.53-21.4 172.53 0 167.83 0 167.83-18.5Q167.83-19.3 167.28-19.8 166.73-20.3 166.03-20.3L166.03-20.3 163.13-20.3 163.13 0ZM180.92-32.8L176.22-31.7 176.22-36.4 180.92-37.5 180.92-32.8ZM181.03 0L176.32 0 176.32-23.9 181.03-25 181.03 0ZM195.52 12.5L188.67 12.5Q187.12 12.5 186.07 11.45 185.02 10.4 185.02 8.85L185.02 8.85 185.02 3.4 189.72 4.5 189.72 6Q189.72 6.7 190.27 7.25 190.82 7.8 191.52 7.8L191.52 7.8 192.62 7.8Q193.32 7.8 193.87 7.25 194.42 6.7 194.42 6L194.42 6 194.42 0 188.67 0Q187.12 0 186.07-1.05 185.02-2.1 185.02-3.65L185.02-3.65 185.02-25 189.72-25 189.72-6.5Q189.72-5.8 190.27-5.25 190.82-4.7 191.52-4.7L191.52-4.7 194.42-4.7 194.42-25 199.12-25 199.12 8.85Q199.12 10.4 198.07 11.45 197.02 12.5 195.52 12.5L195.52 12.5ZM207.32 0L202.62 0 202.62-36.45 207.32-37.55 207.32-12.5 212.02-25 216.72-25 212.02-12.5 216.72 0 212.02 0 209.67-6.3 207.32 0ZM223.92-32.8L219.22-31.7 219.22-36.4 223.92-37.5 223.92-32.8ZM224.02 0L219.32 0 219.32-23.9 224.02-25 224.02 0Z" opacity="1" transform="matrix(1,0,0,1,0,0)" fill="#ffffff" class="undefined-text-0" data-fill-palette-color="primary" id="text-0"></path></svg></g></svg></g><g transform="matrix(1,0,0,1,0,110.74489076703327)"><svg viewBox="0 0 395.52 31.158027414526547" height="31.158027414526547" width="395.52"><g transform="matrix(1,0,0,1,0,0)"><svg width="395.52" viewBox="3.1 -37.5 634.6 50" height="31.158027414526547" data-palette-color="#001f3f"><path d="M18.05 0L6.7 0Q5.2 0 4.15-1.05 3.1-2.1 3.1-3.6L3.1-3.6 3.1-35 7.75-35 7.75-6.4Q7.75-5.7 8.28-5.18 8.8-4.65 9.55-4.65L9.55-4.65 15.2-4.65Q15.95-4.65 16.48-5.18 17-5.7 17-6.4L17-6.4 17-35 21.65-35 21.65-3.6Q21.65-2.1 20.6-1.05 19.55 0 18.05 0L18.05 0ZM32.15 0L27.45 0 27.45-25 37.9-25Q39.35-25 40.45-23.95 41.55-22.9 41.55-21.4L41.55-21.4 41.55 0 36.85 0 36.85-18.5Q36.85-19.3 36.3-19.8 35.75-20.3 35.05-20.3L35.05-20.3 32.15-20.3 32.15 0ZM69.19 0L57.84 0Q56.34 0 55.29-1.05 54.24-2.1 54.24-3.6L54.24-3.6 54.24-11.35 58.89-10.3 58.89-6.45Q58.89-5.7 59.42-5.18 59.94-4.65 60.64-4.65L60.64-4.65 66.34-4.65Q67.09-4.65 67.62-5.18 68.14-5.7 68.14-6.45L68.14-6.45 68.14-15.25Q68.14-16 67.62-16.53 67.09-17.05 66.34-17.05L66.34-17.05 57.84-17.05Q56.34-17.05 55.29-18.1 54.24-19.15 54.24-20.65L54.24-20.65 54.24-31.4Q54.24-32.9 55.29-33.95 56.34-35 57.84-35L57.84-35 69.19-35Q70.69-35 71.74-33.95 72.79-32.9 72.79-31.4L72.79-31.4 72.79-26 68.14-27.1 68.14-28.55Q68.14-29.3 67.62-29.83 67.09-30.35 66.34-30.35L66.34-30.35 60.64-30.35Q59.94-30.35 59.42-29.83 58.89-29.3 58.89-28.55L58.89-28.55 58.89-23.5Q58.89-22.75 59.42-22.23 59.94-21.7 60.64-21.7L60.64-21.7 69.19-21.7Q70.69-21.7 71.74-20.65 72.79-19.6 72.79-18.1L72.79-18.1 72.79-3.6Q72.79-2.1 71.74-1.05 70.69 0 69.19 0L69.19 0ZM81.99-32.8L77.29-31.7 77.29-36.4 81.99-37.5 81.99-32.8ZM82.09 0L77.39 0 77.39-23.9 82.09-25 82.09 0ZM96.04 0L89.19 0Q87.69 0 86.64-1.07 85.59-2.15 85.59-3.65L85.59-3.65 85.59-7.8 90.24-7.8 90.24-6.5Q90.24-5.75 90.79-5.23 91.34-4.7 92.09-4.7L92.09-4.7 93.14-4.7Q93.89-4.7 94.41-5.23 94.94-5.75 94.94-6.5L94.94-6.5 94.94-8.35Q94.94-9.1 94.41-9.63 93.89-10.15 93.14-10.15L93.14-10.15 89.19-10.15Q87.69-10.15 86.64-11.23 85.59-12.3 85.59-13.8L85.59-13.8 85.59-21.35Q85.59-22.85 86.64-23.93 87.69-25 89.19-25L89.19-25 96.04-25Q97.54-25 98.59-23.93 99.64-22.85 99.64-21.35L99.64-21.35 99.64-17.2 94.94-17.2 94.94-18.5Q94.94-19.25 94.41-19.78 93.89-20.3 93.14-20.3L93.14-20.3 92.09-20.3Q91.34-20.3 90.79-19.78 90.24-19.25 90.24-18.5L90.24-18.5 90.24-16.65Q90.24-15.9 90.79-15.38 91.34-14.85 92.09-14.85L92.09-14.85 96.04-14.85Q97.54-14.85 98.59-13.78 99.64-12.7 99.64-11.2L99.64-11.2 99.64-3.45Q99.59-2.05 98.54-1.03 97.49 0 96.04 0L96.04 0ZM107.34 0L102.64 0 102.64-36.4 107.34-37.45 107.34-25 113.29-25 112.19-20.3 107.34-20.3 107.34 0ZM128.88 0L118.43 0Q116.93 0 115.86-1.07 114.78-2.15 114.78-3.65L114.78-3.65 114.78-21.4Q114.78-22.9 115.86-23.95 116.93-25 118.43-25L118.43-25 125.23-25Q126.78-25 127.83-23.95 128.88-22.9 128.88-21.4L128.88-21.4 128.88-13.8Q128.88-12.3 127.83-11.23 126.78-10.15 125.23-10.15L125.23-10.15 119.48-10.15 119.48-6.5Q119.48-5.75 120.01-5.23 120.53-4.7 121.33-4.7L121.33-4.7 127.83-4.7 128.88 0ZM119.48-18.5L119.48-14.85 122.38-14.85Q123.13-14.85 123.66-15.38 124.18-15.9 124.18-16.65L124.18-16.65 124.18-18.5Q124.18-19.25 123.66-19.78 123.13-20.3 122.38-20.3L122.38-20.3 121.33-20.3Q120.53-20.3 120.01-19.78 119.48-19.25 119.48-18.5L119.48-18.5ZM136.93 0L132.23 0 132.23-25 152.08-25Q153.58-25 154.63-23.93 155.68-22.85 155.68-21.35L155.68-21.35 155.68 0 151.03 0 151.03-18.5Q151.03-19.25 150.48-19.78 149.93-20.3 149.18-20.3L149.18-20.3 146.33-20.3 146.33 0 141.63 0 141.63-18.5Q141.63-19.25 141.08-19.78 140.53-20.3 139.78-20.3L139.78-20.3 136.93-20.3 136.93 0ZM172.48 0L162.03 0Q160.53 0 159.45-1.05 158.38-2.1 158.38-3.65L158.38-3.65 158.38-11.2Q158.38-12.7 159.45-13.78 160.53-14.85 162.03-14.85L162.03-14.85 165.93-14.85Q166.73-14.85 167.25-15.38 167.78-15.9 167.78-16.65L167.78-16.65 167.78-18.5Q167.78-19.25 167.25-19.78 166.73-20.3 165.93-20.3L165.93-20.3 160.53-20.3 161.58-25 168.83-25Q170.33-25 171.4-23.93 172.48-22.85 172.48-21.35L172.48-21.35 172.48 0ZM164.88-4.7L164.88-4.7 167.78-4.7 167.78-10.15 164.88-10.15Q164.13-10.15 163.6-9.63 163.08-9.1 163.08-8.35L163.08-8.35 163.08-6.5Q163.08-5.75 163.6-5.23 164.13-4.7 164.88-4.7ZM199.82 2.45L195.17 2.45 194.17 0 188.17 0Q186.67 0 185.62-1.05 184.57-2.1 184.57-3.6L184.57-3.6 184.57-31.5Q184.57-32.95 185.62-33.98 186.67-35 188.17-35L188.17-35 199.57-35Q201.07-35 202.12-33.98 203.17-32.95 203.17-31.5L203.17-31.5 203.17-3.6Q203.17-2.1 202.12-1.05 201.07 0 199.57 0L199.57 0 198.82 0 199.82 2.45ZM191.07-4.65L191.07-4.65 192.27-4.65 191.12-7.65 195.82-7.65 196.97-4.65Q197.57-4.75 198.02-5.28 198.47-5.8 198.47-6.45L198.47-6.45 198.47-28.65Q198.47-29.35 197.97-29.88 197.47-30.4 196.67-30.4L196.67-30.4 191.07-30.4Q190.27-30.4 189.77-29.88 189.27-29.35 189.27-28.65L189.27-28.65 189.27-6.45Q189.27-5.7 189.77-5.18 190.27-4.65 191.07-4.65ZM220.87 0L210.42 0Q208.87 0 207.82-1.05 206.77-2.1 206.77-3.65L206.77-3.65 206.77-25 211.47-25 211.47-6.5Q211.47-5.8 212.02-5.25 212.57-4.7 213.27-4.7L213.27-4.7 216.17-4.7 216.17-25 220.87-25 220.87 0ZM238.97 0L228.52 0Q227.02 0 225.94-1.07 224.87-2.15 224.87-3.65L224.87-3.65 224.87-21.4Q224.87-22.9 225.94-23.95 227.02-25 228.52-25L228.52-25 235.32-25Q236.87-25 237.92-23.95 238.97-22.9 238.97-21.4L238.97-21.4 238.97-13.8Q238.97-12.3 237.92-11.23 236.87-10.15 235.32-10.15L235.32-10.15 229.57-10.15 229.57-6.5Q229.57-5.75 230.09-5.23 230.62-4.7 231.42-4.7L231.42-4.7 237.92-4.7 238.97 0ZM229.57-18.5L229.57-14.85 232.47-14.85Q233.22-14.85 233.74-15.38 234.27-15.9 234.27-16.65L234.27-16.65 234.27-18.5Q234.27-19.25 233.74-19.78 233.22-20.3 232.47-20.3L232.47-20.3 231.42-20.3Q230.62-20.3 230.09-19.78 229.57-19.25 229.57-18.5L229.57-18.5ZM262.46 0L257.81 0 257.81-30.35 250.86-30.35 250.86-35 269.41-35 269.41-30.35 262.46-30.35 262.46 0ZM282.41 0L271.96 0Q270.46 0 269.39-1.07 268.31-2.15 268.31-3.65L268.31-3.65 268.31-21.4Q268.31-22.9 269.39-23.95 270.46-25 271.96-25L271.96-25 278.76-25Q280.31-25 281.36-23.95 282.41-22.9 282.41-21.4L282.41-21.4 282.41-13.8Q282.41-12.3 281.36-11.23 280.31-10.15 278.76-10.15L278.76-10.15 273.01-10.15 273.01-6.5Q273.01-5.75 273.54-5.23 274.06-4.7 274.86-4.7L274.86-4.7 281.36-4.7 282.41 0ZM273.01-18.5L273.01-14.85 275.91-14.85Q276.66-14.85 277.19-15.38 277.71-15.9 277.71-16.65L277.71-16.65 277.71-18.5Q277.71-19.25 277.19-19.78 276.66-20.3 275.91-20.3L275.91-20.3 274.86-20.3Q274.06-20.3 273.54-19.78 273.01-19.25 273.01-18.5L273.01-18.5ZM297.16 0.05L292.51 0.05 299.56-34.95 304.11-34.95 311.06 0.05 306.41 0.05 305.06-6.5 298.41-6.5 297.16 0.05ZM301.86-23.55L299.31-11.1 304.26-11.1 301.86-23.55ZM323.65 12.5L316.8 12.5Q315.25 12.5 314.2 11.45 313.15 10.4 313.15 8.85L313.15 8.85 313.15 3.4 317.85 4.5 317.85 6Q317.85 6.7 318.4 7.25 318.95 7.8 319.65 7.8L319.65 7.8 320.75 7.8Q321.45 7.8 322 7.25 322.55 6.7 322.55 6L322.55 6 322.55 0 316.8 0Q315.25 0 314.2-1.05 313.15-2.1 313.15-3.65L313.15-3.65 313.15-25 317.85-25 317.85-6.5Q317.85-5.8 318.4-5.25 318.95-4.7 319.65-4.7L319.65-4.7 322.55-4.7 322.55-25 327.25-25 327.25 8.85Q327.25 10.4 326.2 11.45 325.15 12.5 323.65 12.5L323.65 12.5ZM345.35 0L334.9 0Q333.35 0 332.3-1.05 331.25-2.1 331.25-3.65L331.25-3.65 331.25-25 335.95-25 335.95-6.5Q335.95-5.8 336.5-5.25 337.05-4.7 337.75-4.7L337.75-4.7 340.65-4.7 340.65-25 345.35-25 345.35 0ZM362.45 0L352 0Q350.45 0 349.4-1.05 348.35-2.1 348.35-3.65L348.35-3.65 348.35-21.35Q348.35-22.9 349.4-23.95 350.45-25 352-25L352-25 357.75-25 357.75-36.4 362.45-37.5 362.45 0ZM354.85-4.7L354.85-4.7 357.75-4.7 357.75-20.3 354.85-20.3Q354.15-20.3 353.6-19.8 353.05-19.3 353.05-18.5L353.05-18.5 353.05-6.5Q353.05-5.8 353.6-5.25 354.15-4.7 354.85-4.7ZM379.05 0L368.6 0Q367.1 0 366.02-1.05 364.95-2.1 364.95-3.65L364.95-3.65 364.95-11.2Q364.95-12.7 366.02-13.78 367.1-14.85 368.6-14.85L368.6-14.85 372.5-14.85Q373.3-14.85 373.82-15.38 374.35-15.9 374.35-16.65L374.35-16.65 374.35-18.5Q374.35-19.25 373.82-19.78 373.3-20.3 372.5-20.3L372.5-20.3 367.1-20.3 368.15-25 375.4-25Q376.9-25 377.97-23.93 379.05-22.85 379.05-21.35L379.05-21.35 379.05 0ZM371.45-4.7L371.45-4.7 374.35-4.7 374.35-10.15 371.45-10.15Q370.7-10.15 370.17-9.63 369.65-9.1 369.65-8.35L369.65-8.35 369.65-6.5Q369.65-5.75 370.17-5.23 370.7-4.7 371.45-4.7ZM402.64 0L397.99 0 397.99-17 391.14-35 395.79-35 400.34-23.05 404.84-35 409.49-35 402.64-17 402.64 0ZM437.64 0L426.29 0Q424.89 0 423.79-1.05 422.69-2.1 422.69-3.6L422.69-3.6 422.69-31.4Q422.69-32.85 423.79-33.93 424.89-35 426.29-35L426.29-35 437.64-35Q439.19-35 440.21-33.93 441.24-32.85 441.24-31.4L441.24-31.4 441.24-24.9 436.59-23.85 436.59-28.55Q436.59-29.25 436.11-29.8 435.64-30.35 434.84-30.35L434.84-30.35 429.14-30.35Q428.44-30.35 427.89-29.8 427.34-29.25 427.34-28.55L427.34-28.55 427.34-6.45Q427.34-5.65 427.89-5.15 428.44-4.65 429.14-4.65L429.14-4.65 434.84-4.65Q435.64-4.65 436.11-5.15 436.59-5.65 436.59-6.45L436.59-6.45 436.59-10.1 441.24-11.2 441.24-3.6Q441.24-2.1 440.21-1.05 439.19 0 437.64 0L437.64 0ZM449.53 0L444.83 0 444.83-25 455.28-25Q456.78-25 457.86-23.93 458.93-22.85 458.93-21.35L458.93-21.35 458.93-15.9 454.23-16.95 454.23-18.45Q454.23-19.2 453.71-19.75 453.18-20.3 452.43-20.3L452.43-20.3 449.53-20.3 449.53 0ZM475.03 0L464.58 0Q463.08 0 462.01-1.07 460.93-2.15 460.93-3.65L460.93-3.65 460.93-21.4Q460.93-22.9 462.01-23.95 463.08-25 464.58-25L464.58-25 471.38-25Q472.93-25 473.98-23.95 475.03-22.9 475.03-21.4L475.03-21.4 475.03-13.8Q475.03-12.3 473.98-11.23 472.93-10.15 471.38-10.15L471.38-10.15 465.63-10.15 465.63-6.5Q465.63-5.75 466.16-5.23 466.68-4.7 467.48-4.7L467.48-4.7 473.98-4.7 475.03 0ZM465.63-18.5L465.63-14.85 468.53-14.85Q469.28-14.85 469.81-15.38 470.33-15.9 470.33-16.65L470.33-16.65 470.33-18.5Q470.33-19.25 469.81-19.78 469.28-20.3 468.53-20.3L468.53-20.3 467.48-20.3Q466.68-20.3 466.16-19.78 465.63-19.25 465.63-18.5L465.63-18.5ZM488.48 0L481.68 0Q480.13 0 479.08-1.07 478.03-2.15 478.03-3.65L478.03-3.65 478.03-21.35Q478.03-22.85 479.08-23.93 480.13-25 481.68-25L481.68-25 488.48-25Q489.98-25 491.05-23.93 492.13-22.85 492.13-21.35L492.13-21.35 492.13-15.9 487.43-15.9 487.43-18.5Q487.43-19.25 486.88-19.78 486.33-20.3 485.58-20.3L485.58-20.3 484.53-20.3Q483.78-20.3 483.25-19.78 482.73-19.25 482.73-18.5L482.73-18.5 482.73-6.5Q482.73-5.75 483.25-5.23 483.78-4.7 484.53-4.7L484.53-4.7 485.58-4.7Q486.33-4.7 486.88-5.23 487.43-5.75 487.43-6.5L487.43-6.5 487.43-9.1 492.13-9.1 492.13-3.65Q492.13-2.15 491.05-1.07 489.98 0 488.48 0L488.48 0ZM509.23 0L498.78 0Q497.28 0 496.2-1.07 495.13-2.15 495.13-3.65L495.13-3.65 495.13-21.4Q495.13-22.9 496.2-23.95 497.28-25 498.78-25L498.78-25 505.58-25Q507.13-25 508.18-23.95 509.23-22.9 509.23-21.4L509.23-21.4 509.23-13.8Q509.23-12.3 508.18-11.23 507.13-10.15 505.58-10.15L505.58-10.15 499.83-10.15 499.83-6.5Q499.83-5.75 500.35-5.23 500.88-4.7 501.68-4.7L501.68-4.7 508.18-4.7 509.23 0ZM499.83-18.5L499.83-14.85 502.73-14.85Q503.48-14.85 504-15.38 504.53-15.9 504.53-16.65L504.53-16.65 504.53-18.5Q504.53-19.25 504-19.78 503.48-20.3 502.73-20.3L502.73-20.3 501.68-20.3Q500.88-20.3 500.35-19.78 499.83-19.25 499.83-18.5L499.83-18.5ZM536.27 0L524.92 0Q523.52 0 522.42-1.05 521.32-2.1 521.32-3.6L521.32-3.6 521.32-31.4Q521.32-32.85 522.42-33.93 523.52-35 524.92-35L524.92-35 536.27-35Q537.82-35 538.85-33.93 539.87-32.85 539.87-31.4L539.87-31.4 539.87-24.9 535.22-23.85 535.22-28.55Q535.22-29.25 534.75-29.8 534.27-30.35 533.47-30.35L533.47-30.35 527.77-30.35Q527.07-30.35 526.52-29.8 525.97-29.25 525.97-28.55L525.97-28.55 525.97-6.45Q525.97-5.65 526.52-5.15 527.07-4.65 527.77-4.65L527.77-4.65 533.47-4.65Q534.27-4.65 534.75-5.15 535.22-5.65 535.22-6.45L535.22-6.45 535.22-10.1 539.87-11.2 539.87-3.6Q539.87-2.1 538.85-1.05 537.82 0 536.27 0L536.27 0ZM553.32 0L546.52 0Q544.97 0 543.92-1.07 542.87-2.15 542.87-3.65L542.87-3.65 542.87-21.35Q542.87-22.85 543.92-23.93 544.97-25 546.52-25L546.52-25 553.32-25Q554.82-25 555.87-23.93 556.92-22.85 556.92-21.35L556.92-21.35 556.92-3.65Q556.92-2.15 555.87-1.07 554.82 0 553.32 0L553.32 0ZM549.37-4.7L549.37-4.7 550.42-4.7Q551.17-4.7 551.72-5.23 552.27-5.75 552.27-6.5L552.27-6.5 552.27-18.5Q552.27-19.25 551.72-19.78 551.17-20.3 550.42-20.3L550.42-20.3 549.37-20.3Q548.62-20.3 548.09-19.78 547.57-19.25 547.57-18.5L547.57-18.5 547.57-6.5Q547.57-5.75 548.09-5.23 548.62-4.7 549.37-4.7ZM564.87 0L560.17 0 560.17-25 570.62-25Q572.07-25 573.17-23.95 574.27-22.9 574.27-21.4L574.27-21.4 574.27 0 569.57 0 569.57-18.5Q569.57-19.3 569.02-19.8 568.47-20.3 567.77-20.3L567.77-20.3 564.87-20.3 564.87 0ZM582.16 0L577.46 0 577.46-36.4 582.16-37.45 582.16-25 588.11-25 587.01-20.3 582.16-20.3 582.16 0ZM594.31-32.8L589.61-31.7 589.61-36.4 594.31-37.5 594.31-32.8ZM594.41 0L589.71 0 589.71-23.9 594.41-25 594.41 0ZM608.36 12.5L601.56 12.5Q600.11 12.5 599.01 11.45 597.91 10.4 597.91 8.85L597.91 8.85 597.91 3.4 602.61 4.5 602.61 6Q602.61 6.7 603.16 7.25 603.71 7.8 604.41 7.8L604.41 7.8 605.51 7.8Q606.31 7.8 606.81 7.25 607.31 6.7 607.31 6L607.31 6 607.31 0 601.56 0Q600.11 0 599.01-1.05 597.91-2.1 597.91-3.65L597.91-3.65 597.91-21.35Q597.91-22.9 599.01-23.95 600.11-25 601.56-25L601.56-25 612.01-25 612.01 8.85Q612.01 10.4 610.96 11.45 609.91 12.5 608.36 12.5L608.36 12.5ZM604.41-4.7L604.41-4.7 605.51-4.7Q606.31-4.7 606.81-5.25 607.31-5.8 607.31-6.5L607.31-6.5 607.31-20.3 604.41-20.3Q603.71-20.3 603.16-19.8 602.61-19.3 602.61-18.5L602.61-18.5 602.61-6.5Q602.61-5.8 603.16-5.25 603.71-4.7 604.41-4.7ZM625.35 0L618.55 0Q617 0 615.95-1.07 614.9-2.15 614.9-3.65L614.9-3.65 614.9-21.35Q614.9-22.85 615.95-23.93 617-25 618.55-25L618.55-25 625.35-25Q626.85-25 627.9-23.93 628.95-22.85 628.95-21.35L628.95-21.35 628.95-3.65Q628.95-2.15 627.9-1.07 626.85 0 625.35 0L625.35 0ZM621.4-4.7L621.4-4.7 622.45-4.7Q623.2-4.7 623.75-5.23 624.3-5.75 624.3-6.5L624.3-6.5 624.3-18.5Q624.3-19.25 623.75-19.78 623.2-20.3 622.45-20.3L622.45-20.3 621.4-20.3Q620.65-20.3 620.13-19.78 619.6-19.25 619.6-18.5L619.6-18.5 619.6-6.5Q619.6-5.75 620.13-5.23 620.65-4.7 621.4-4.7ZM637.7 0L633 0 633-4.7 637.7-4.7 637.7 0Z" opacity="1" transform="matrix(1,0,0,1,0,0)" fill="#ffffff" class="undefined-text-1" data-fill-palette-color="secondary" id="text-1"></path></svg></g></svg></g></svg></g></svg></g><g transform="matrix(1,0,0,1,137.00348477503445,0)"><svg viewBox="0 0 121.51303044993105 98.05491646345784" height="98.05491646345784" width="121.51303044993105"><g><svg xmlns="http://www.w3.org/2000/svg" xmlns:xlink="http://www.w3.org/1999/xlink" version="1.1" x="0" y="0" viewBox="27.993 33.022999999999996 42.735000000000014 34.485" enable-background="new 0 0 100 100" xml:space="preserve" height="98.05491646345784" width="121.51303044993105" class="icon-icon-0" data-fill-palette-color="accent" id="icon-0"><path d="M27.993 35.58l7.305 7.303-7.305 7.306 2.557 2.557 9.863-9.862-9.863-9.861L27.993 35.58zM42.148 47.975v3.617h28.58v-3.617H42.148zM42.148 59.55h28.58v-3.617h-28.58V59.55zM42.148 67.508h14.29v-3.617h-14.29V67.508z" fill="#ffffff" data-fill-palette-color="accent"></path></svg></g></svg></g><g></g></svg></g></svg></g></svg></g><defs></defs></svg><rect width="374.45134333249825" height="247.2" fill="none" stroke="none" visibility="hidden"></rect></g></svg></g></svg>